<svg width="31" height="31" viewBox="0 0 31 31" fill="none" xmlns="http://www.w3.org/2000/svg">
<path fill-rule="evenodd" clip-rule="evenodd" d="M15.5 1.29175C18.3534 1.29175 20.6666 3.60494 20.6666 6.45841V15.5001C20.6666 18.3536 18.3534 20.6667 15.5 20.6667C12.6465 20.6667 10.3333 18.3536 10.3333 15.5001V6.45841C10.3333 3.60494 12.6465 1.29175 15.5 1.29175ZM16.7916 25.7535V27.1251H20.6666V29.7084H10.3333V27.1251H14.2083V25.7535C9.11097 25.1178 5.16663 20.7696 5.16663 15.5001V12.9167H7.74996V15.5001C7.74996 19.7803 11.2198 23.2501 15.5 23.2501C19.7802 23.2501 23.25 19.7803 23.25 15.5001V12.9167H25.8333V15.5001C25.8333 20.7696 21.8889 25.1178 16.7916 25.7535ZM12.9166 6.45842C12.9166 5.03168 14.0732 3.87508 15.5 3.87508C16.9267 3.87508 18.0833 5.03168 18.0833 6.45842V15.5001C18.0833 16.9268 16.9267 18.0834 15.5 18.0834C14.0732 18.0834 12.9166 16.9268 12.9166 15.5001V6.45842Z" fill="white"/>
</svg>
