<svg width="25" height="33" viewBox="0 0 25 33" fill="none" xmlns="http://www.w3.org/2000/svg">
<path d="M11.6351 0.0164903C11.4588 0.0449492 11.2846 0.0851503 11.1137 0.136825C10.2088 0.3406 9.40255 0.851651 8.8321 1.58299C8.26166 2.31433 7.96228 3.22076 7.98495 4.14799V12.1703C7.98495 13.2341 8.40755 14.2544 9.15979 15.0066C9.91203 15.7589 10.9323 16.1815 11.9961 16.1815C13.0599 16.1815 14.0802 15.7589 14.8324 15.0066C15.5847 14.2544 16.0073 13.2341 16.0073 12.1703V4.14799C16.0267 3.57941 15.9249 3.0132 15.7087 2.48696C15.4925 1.96071 15.1669 1.48648 14.7534 1.09574C14.3399 0.704995 13.848 0.406684 13.3104 0.220611C12.7727 0.0345367 12.2017 -0.0350432 11.6351 0.0164903ZM1.36652 8.15915C0.951406 8.2987 0.593375 8.57029 0.347114 8.93244C0.100853 9.29459 -0.0201001 9.72739 0.00272751 10.1647V12.1703C0.00272751 18.1068 4.3749 22.9604 10.0306 23.9631V28.215H8.02506C5.81892 28.215 4.01389 30.02 4.01389 32.2261H20.0987C20.0987 30.02 18.2936 28.215 16.0875 28.215H14.0819V23.9631C19.7377 23.0005 24.1098 18.1068 24.1098 12.1703V10.1647C24.1098 9.63282 23.8985 9.1227 23.5224 8.74658C23.1463 8.37046 22.6362 8.15915 22.1042 8.15915C21.5723 8.15915 21.0622 8.37046 20.6861 8.74658C20.31 9.1227 20.0987 9.63282 20.0987 10.1647V12.1703C20.0987 16.6227 16.5287 20.1926 12.0763 20.1926C7.62394 20.1926 4.054 16.6227 4.054 12.1703V10.1647C4.05886 9.86803 3.99781 9.57395 3.87527 9.30369C3.75272 9.03343 3.57173 8.79373 3.34534 8.60188C3.11896 8.41003 2.85282 8.2708 2.56612 8.19424C2.27942 8.11769 1.97931 8.1057 1.68742 8.15915C1.60727 8.15434 1.5269 8.15434 1.44675 8.15915H1.36652Z" fill="white"/>
</svg>
