<svg id="egg_path" width="221" height="295" viewBox="0 0 221 295" xmlns="http://www.w3.org/2000/svg">
<path d="M104 1H109H116L125.5 2L133.5 4.5L141 7.5L150.5 12.5L158.5 18.5L166 24.5L172 30.5L182 44L188.5 53L195 65.5L198 71.5L204.5 84.5L210 98.5L213.5 110.5L216.5 121L217.5 129.5L219 139.5L220 149.5V158.5V168.5L219 184L216.5 200L210 220L203 236L194.5 249L182.5 263.5L170.5 274L158.5 282.5L147 288L139 291L129.5 293L118 294.5H104L89 293L81 290L72 285.5L59 279.5L51 274.5L43 268L35.5 260.5L28 251L21.5 241L15.5 230.5L11.5 221L7 209.5L4 198L2.5 190L1.5 181L1 176.5V169.5V161.5V152V148V144.5L1.5 141.5L2.5 131L4 122L6 113L8.5 103L11 95L13 89.5L15 84L17.5 77.5L21 69.5L24.5 63L28.5 56L34.5 47L39.5 40L46.5 32L53.5 25L59.5 20L67.5 14L76 9L82.5 6L90.5 3L94 2L97.5 1H100H104Z" stroke="black"/>
</svg>
